<svg height="430.4375" version="1.1" width="540" xmlns="http://www.w3.org/2000/svg" xmlns:xlink="http://www.w3.org/1999/xlink" style="overflow: hidden; position: relative;"><desc>Created with Raphaël 2.2.0</desc><defs><path stroke-linecap="round" d="M5,0 0,2.5 5,5z" id="raphael-marker-block"></path><marker id="raphael-marker-endblock55-objmxxmy" markerHeight="5" markerWidth="5" orient="auto" refX="2.5" refY="2.5"><use xlink:href="#raphael-marker-block" transform="rotate(180 2.5 2.5) scale(1,1)" stroke-width="1.0000" fill="#000" stroke="none"></use></marker><marker id="raphael-marker-endblock55-obj1u8ex" markerHeight="5" markerWidth="5" orient="auto" refX="2.5" refY="2.5"><use xlink:href="#raphael-marker-block" transform="rotate(180 2.5 2.5) scale(1,1)" stroke-width="1.0000" fill="#000" stroke="none"></use></marker><marker id="raphael-marker-endblock55-obj7jhq9" markerHeight="5" markerWidth="5" orient="auto" refX="2.5" refY="2.5"><use xlink:href="#raphael-marker-block" transform="rotate(180 2.5 2.5) scale(1,1)" stroke-width="1.0000" fill="#000" stroke="none"></use></marker><marker id="raphael-marker-endblock55-objru2g8" markerHeight="5" markerWidth="5" orient="auto" refX="2.5" refY="2.5"><use xlink:href="#raphael-marker-block" transform="rotate(180 2.5 2.5) scale(1,1)" stroke-width="1.0000" fill="#000" stroke="none"></use></marker><marker id="raphael-marker-endblock55-objynnle" markerHeight="5" markerWidth="5" orient="auto" refX="2.5" refY="2.5"><use xlink:href="#raphael-marker-block" transform="rotate(180 2.5 2.5) scale(1,1)" stroke-width="1.0000" fill="#000" stroke="none"></use></marker><marker id="raphael-marker-endblock55-objg3dpf" markerHeight="5" markerWidth="5" orient="auto" refX="2.5" refY="2.5"><use xlink:href="#raphael-marker-block" transform="rotate(180 2.5 2.5) scale(1,1)" stroke-width="1.0000" fill="#000" stroke="none"></use></marker></defs><rect x="10" y="10" width="144.4375" height="28" rx="0" ry="0" fill="none" stroke="#000000" stroke-width="2" style=""></rect><rect x="15" y="15" width="134.4375" height="18" rx="0" ry="0" fill="#ffffff" stroke="none" style=""></rect><text x="82.21875" y="24" text-anchor="middle" font-family="Andale Mono, monospace" font-size="16px" stroke="none" fill="#000000" style="text-anchor: middle; font-family: &quot;Andale Mono&quot;, monospace; font-size: 16px;"><tspan dy="5.515625">DispSyncThread</tspan></text><rect x="10" y="48" width="106.4375" height="57.21875" rx="0" ry="0" fill="none" stroke="#000000" stroke-width="2" style=""></rect><rect x="20" y="58" width="86.4375" height="37.21875" rx="0" ry="0" fill="#ffffff" stroke="none" style=""></rect><text x="63.21875" y="76.609375" text-anchor="middle" font-family="Andale Mono, monospace" font-size="16px" stroke="none" fill="#000000" style="text-anchor: middle; font-family: &quot;Andale Mono&quot;, monospace; font-size: 16px;"><tspan dy="-4.0859375">Scheduler</tspan><tspan dy="19.2" x="63.21875">(native)</tspan></text><rect x="10" y="353.21875" width="106.4375" height="57.21875" rx="0" ry="0" fill="none" stroke="#000000" stroke-width="2" style=""></rect><rect x="20" y="363.21875" width="86.4375" height="37.21875" rx="0" ry="0" fill="#ffffff" stroke="none" style=""></rect><text x="63.21875" y="381.828125" text-anchor="middle" font-family="Andale Mono, monospace" font-size="16px" stroke="none" fill="#000000" style="text-anchor: middle; font-family: &quot;Andale Mono&quot;, monospace; font-size: 16px;"><tspan dy="-4.0859375">Scheduler</tspan><tspan dy="19.2" x="63.21875">(native)</tspan></text><path fill="none" stroke="#000000" d="M63.21875,105.21875L63.21875,353.21875" stroke-width="2" style=""></path><rect x="188.4375" y="48" width="96.8125" height="57.21875" rx="0" ry="0" fill="none" stroke="#000000" stroke-width="2" style=""></rect><rect x="198.4375" y="58" width="76.8125" height="37.21875" rx="0" ry="0" fill="#ffffff" stroke="none" style=""></rect><text x="236.84375" y="76.609375" text-anchor="middle" font-family="Andale Mono, monospace" font-size="16px" stroke="none" fill="#000000" style="text-anchor: middle; font-family: &quot;Andale Mono&quot;, monospace; font-size: 16px;"><tspan dy="-4.0859375">DispSync</tspan><tspan dy="19.2" x="236.84375">(native)</tspan></text><rect x="188.4375" y="353.21875" width="96.8125" height="57.21875" rx="0" ry="0" fill="none" stroke="#000000" stroke-width="2" style=""></rect><rect x="198.4375" y="363.21875" width="76.8125" height="37.21875" rx="0" ry="0" fill="#ffffff" stroke="none" style=""></rect><text x="236.84375" y="381.828125" text-anchor="middle" font-family="Andale Mono, monospace" font-size="16px" stroke="none" fill="#000000" style="text-anchor: middle; font-family: &quot;Andale Mono&quot;, monospace; font-size: 16px;"><tspan dy="-4.0859375">DispSync</tspan><tspan dy="19.2" x="236.84375">(native)</tspan></text><path fill="none" stroke="#000000" d="M236.84375,105.21875L236.84375,353.21875" stroke-width="2" style=""></path><rect x="305.25" y="48" width="154.4375" height="57.21875" rx="0" ry="0" fill="none" stroke="#000000" stroke-width="2" style=""></rect><rect x="315.25" y="58" width="134.4375" height="37.21875" rx="0" ry="0" fill="#ffffff" stroke="none" style=""></rect><text x="382.46875" y="76.609375" text-anchor="middle" font-family="Andale Mono, monospace" font-size="16px" stroke="none" fill="#000000" style="text-anchor: middle; font-family: &quot;Andale Mono&quot;, monospace; font-size: 16px;"><tspan dy="-4.0859375">DispSyncThread</tspan><tspan dy="19.2" x="382.46875">(native)</tspan></text><rect x="305.25" y="353.21875" width="154.4375" height="57.21875" rx="0" ry="0" fill="none" stroke="#000000" stroke-width="2" style=""></rect><rect x="315.25" y="363.21875" width="134.4375" height="37.21875" rx="0" ry="0" fill="#ffffff" stroke="none" style=""></rect><text x="382.46875" y="381.828125" text-anchor="middle" font-family="Andale Mono, monospace" font-size="16px" stroke="none" fill="#000000" style="text-anchor: middle; font-family: &quot;Andale Mono&quot;, monospace; font-size: 16px;"><tspan dy="-4.0859375">DispSyncThread</tspan><tspan dy="19.2" x="382.46875">(native)</tspan></text><path fill="none" stroke="#000000" d="M382.46875,105.21875L382.46875,353.21875" stroke-width="2" style=""></path><rect x="88.21875" y="125.21875" width="105.625" height="18" rx="0" ry="0" fill="#ffffff" stroke="none" style=""></rect><text x="141.03125" y="134.21875" text-anchor="middle" font-family="Andale Mono, monospace" font-size="16px" stroke="none" fill="#000000" style="text-anchor: middle; font-family: &quot;Andale Mono&quot;, monospace; font-size: 16px;"><tspan dy="5.515625">Scheduler()</tspan></text><path fill="none" stroke="#000000" d="M63.21875,120.21875L83.21875,120.21875" stroke-width="2" stroke-dasharray="none" style=""></path><path fill="none" stroke="#000000" d="M83.21875,120.21875L83.21875,153.21875" stroke-width="2" stroke-dasharray="none" style=""></path><path fill="none" stroke="#000000" d="M83.21875,153.21875C83.21875,153.21875,74.13786315917969,153.21875,68.21400338411331,153.21875" stroke-width="2" stroke-dasharray="none" marker-end="url(#raphael-marker-endblock55-objmxxmy)" style=""></path><rect x="73.21875" y="159.21875" width="153.625" height="18" rx="0" ry="0" fill="#ffffff" stroke="none" style=""></rect><text x="150.03125" y="168.21875" text-anchor="middle" font-family="Andale Mono, monospace" font-size="16px" stroke="none" fill="#000000" style="text-anchor: middle; font-family: &quot;Andale Mono&quot;, monospace; font-size: 16px;"><tspan dy="5.515625">createDispSync()</tspan></text><path fill="none" stroke="#000000" d="M63.21875,181.21875C63.21875,181.21875,203.36710357666016,181.21875,231.83473789691925,181.21875" stroke-width="2" marker-end="url(#raphael-marker-endblock55-obj1u8ex)" stroke-dasharray="none" style=""></path><rect x="261.84375" y="201.21875" width="96.03125" height="18" rx="0" ry="0" fill="#ffffff" stroke="none" style=""></rect><text x="309.859375" y="210.21875" text-anchor="middle" font-family="Andale Mono, monospace" font-size="16px" stroke="none" fill="#000000" style="text-anchor: middle; font-family: &quot;Andale Mono&quot;, monospace; font-size: 16px;"><tspan dy="5.515625">DispSync()</tspan></text><path fill="none" stroke="#000000" d="M236.84375,196.21875L256.84375,196.21875" stroke-width="2" stroke-dasharray="none" style=""></path><path fill="none" stroke="#000000" d="M256.84375,196.21875L256.84375,229.21875" stroke-width="2" stroke-dasharray="none" style=""></path><path fill="none" stroke="#000000" d="M256.84375,229.21875C256.84375,229.21875,247.7628631591797,229.21875,241.8390033841133,229.21875" stroke-width="2" stroke-dasharray="none" marker-end="url(#raphael-marker-endblock55-obj7jhq9)" style=""></path><rect x="295.25" y="235.21875" width="28.8125" height="18" rx="0" ry="0" fill="#ffffff" stroke="none" style=""></rect><text x="309.65625" y="244.21875" text-anchor="middle" font-family="Andale Mono, monospace" font-size="16px" stroke="none" fill="#000000" style="text-anchor: middle; font-family: &quot;Andale Mono&quot;, monospace; font-size: 16px;"><tspan dy="5.515625">new</tspan></text><path fill="none" stroke="#000000" d="M236.84375,257.21875C236.84375,257.21875,351.9125013127923,257.21875,377.47709205855426,257.21875" stroke-width="2" marker-end="url(#raphael-marker-endblock55-objru2g8)" stroke-dasharray="6,2" style=""></path><rect x="407.46875" y="277.21875" width="48.03125" height="18" rx="0" ry="0" fill="#ffffff" stroke="none" style=""></rect><text x="431.484375" y="286.21875" text-anchor="middle" font-family="Andale Mono, monospace" font-size="16px" stroke="none" fill="#000000" style="text-anchor: middle; font-family: &quot;Andale Mono&quot;, monospace; font-size: 16px;"><tspan dy="5.515625">run()</tspan></text><path fill="none" stroke="#000000" d="M382.46875,272.21875L402.46875,272.21875" stroke-width="2" stroke-dasharray="none" style=""></path><path fill="none" stroke="#000000" d="M402.46875,272.21875L402.46875,305.21875" stroke-width="2" stroke-dasharray="none" style=""></path><path fill="none" stroke="#000000" d="M402.46875,305.21875C402.46875,305.21875,393.3878631591797,305.21875,387.4640033841133,305.21875" stroke-width="2" stroke-dasharray="none" marker-end="url(#raphael-marker-endblock55-objynnle)" style=""></path><rect x="407.46875" y="315.21875" width="115.21875" height="18" rx="0" ry="0" fill="#ffffff" stroke="none" style=""></rect><text x="465.078125" y="324.21875" text-anchor="middle" font-family="Andale Mono, monospace" font-size="16px" stroke="none" fill="#000000" style="text-anchor: middle; font-family: &quot;Andale Mono&quot;, monospace; font-size: 16px;"><tspan dy="5.515625">threadLoop()</tspan></text><path fill="none" stroke="#000000" d="M382.46875,310.21875L402.46875,310.21875" stroke-width="2" stroke-dasharray="none" style=""></path><path fill="none" stroke="#000000" d="M402.46875,310.21875L402.46875,343.21875" stroke-width="2" stroke-dasharray="none" style=""></path><path fill="none" stroke="#000000" d="M402.46875,343.21875C402.46875,343.21875,393.3878631591797,343.21875,387.4640033841133,343.21875" stroke-width="2" stroke-dasharray="none" marker-end="url(#raphael-marker-endblock55-objg3dpf)" style=""></path></svg>