<svg height="392.4375" version="1.1" width="1020" xmlns="http://www.w3.org/2000/svg" xmlns:xlink="http://www.w3.org/1999/xlink" style="overflow: hidden; position: relative; left: -0.25px;"><desc>Created with Raphaël 2.2.0</desc><defs><path stroke-linecap="round" d="M5,0 0,2.5 5,5z" id="raphael-marker-block"></path><marker id="raphael-marker-endblock55-objfybgh" markerHeight="5" markerWidth="5" orient="auto" refX="2.5" refY="2.5"><use xlink:href="#raphael-marker-block" transform="rotate(180 2.5 2.5) scale(1,1)" stroke-width="1.0000" fill="#000" stroke="none"></use></marker><marker id="raphael-marker-endblock55-obj5cjyz" markerHeight="5" markerWidth="5" orient="auto" refX="2.5" refY="2.5"><use xlink:href="#raphael-marker-block" transform="rotate(180 2.5 2.5) scale(1,1)" stroke-width="1.0000" fill="#000" stroke="none"></use></marker><marker id="raphael-marker-endblock55-obj5yq0v" markerHeight="5" markerWidth="5" orient="auto" refX="2.5" refY="2.5"><use xlink:href="#raphael-marker-block" transform="rotate(180 2.5 2.5) scale(1,1)" stroke-width="1.0000" fill="#000" stroke="none"></use></marker><marker id="raphael-marker-endblock55-obj5nxno" markerHeight="5" markerWidth="5" orient="auto" refX="2.5" refY="2.5"><use xlink:href="#raphael-marker-block" transform="rotate(180 2.5 2.5) scale(1,1)" stroke-width="1.0000" fill="#000" stroke="none"></use></marker><marker id="raphael-marker-endblock55-obj4a5q5" markerHeight="5" markerWidth="5" orient="auto" refX="2.5" refY="2.5"><use xlink:href="#raphael-marker-block" transform="rotate(180 2.5 2.5) scale(1,1)" stroke-width="1.0000" fill="#000" stroke="none"></use></marker></defs><rect x="10" y="10" width="278.84375" height="28" rx="0" ry="0" fill="none" stroke="#000000" stroke-width="2" style=""></rect><rect x="15" y="15" width="268.84375" height="18" rx="0" ry="0" fill="#ffffff" stroke="none" style=""></rect><text x="149.421875" y="24" text-anchor="middle" font-family="Andale Mono, monospace" font-size="16px" stroke="none" fill="#000000" style="text-anchor: middle; font-family: &quot;Andale Mono&quot;, monospace; font-size: 16px;"><tspan dy="5.515625">Scheduler::addPresentFence()</tspan></text><rect x="10" y="48" width="154.4375" height="57.21875" rx="0" ry="0" fill="none" stroke="#000000" stroke-width="2" style=""></rect><rect x="20" y="58" width="134.4375" height="37.21875" rx="0" ry="0" fill="#ffffff" stroke="none" style=""></rect><text x="87.21875" y="76.609375" text-anchor="middle" font-family="Andale Mono, monospace" font-size="16px" stroke="none" fill="#000000" style="text-anchor: middle; font-family: &quot;Andale Mono&quot;, monospace; font-size: 16px;"><tspan dy="-4.0859375">SurfaceFlinger</tspan><tspan dy="19.2" x="87.21875">(native)</tspan></text><rect x="10" y="315.21875" width="154.4375" height="57.21875" rx="0" ry="0" fill="none" stroke="#000000" stroke-width="2" style=""></rect><rect x="20" y="325.21875" width="134.4375" height="37.21875" rx="0" ry="0" fill="#ffffff" stroke="none" style=""></rect><text x="87.21875" y="343.828125" text-anchor="middle" font-family="Andale Mono, monospace" font-size="16px" stroke="none" fill="#000000" style="text-anchor: middle; font-family: &quot;Andale Mono&quot;, monospace; font-size: 16px;"><tspan dy="-4.0859375">SurfaceFlinger</tspan><tspan dy="19.2" x="87.21875">(native)</tspan></text><path fill="none" stroke="#000000" d="M87.21875,105.21875L87.21875,315.21875" stroke-width="2" style=""></path><rect x="370.875" y="48" width="106.4375" height="57.21875" rx="0" ry="0" fill="none" stroke="#000000" stroke-width="2" style=""></rect><rect x="380.875" y="58" width="86.4375" height="37.21875" rx="0" ry="0" fill="#ffffff" stroke="none" style=""></rect><text x="424.09375" y="76.609375" text-anchor="middle" font-family="Andale Mono, monospace" font-size="16px" stroke="none" fill="#000000" style="text-anchor: middle; font-family: &quot;Andale Mono&quot;, monospace; font-size: 16px;"><tspan dy="-4.0859375">Scheduler</tspan><tspan dy="19.2" x="424.09375">(native)</tspan></text><rect x="370.875" y="315.21875" width="106.4375" height="57.21875" rx="0" ry="0" fill="none" stroke="#000000" stroke-width="2" style=""></rect><rect x="380.875" y="325.21875" width="86.4375" height="37.21875" rx="0" ry="0" fill="#ffffff" stroke="none" style=""></rect><text x="424.09375" y="343.828125" text-anchor="middle" font-family="Andale Mono, monospace" font-size="16px" stroke="none" fill="#000000" style="text-anchor: middle; font-family: &quot;Andale Mono&quot;, monospace; font-size: 16px;"><tspan dy="-4.0859375">Scheduler</tspan><tspan dy="19.2" x="424.09375">(native)</tspan></text><path fill="none" stroke="#000000" d="M424.09375,105.21875L424.09375,315.21875" stroke-width="2" style=""></path><rect x="645.34375" y="48" width="96.8125" height="57.21875" rx="0" ry="0" fill="none" stroke="#000000" stroke-width="2" style=""></rect><rect x="655.34375" y="58" width="76.8125" height="37.21875" rx="0" ry="0" fill="#ffffff" stroke="none" style=""></rect><text x="693.75" y="76.609375" text-anchor="middle" font-family="Andale Mono, monospace" font-size="16px" stroke="none" fill="#000000" style="text-anchor: middle; font-family: &quot;Andale Mono&quot;, monospace; font-size: 16px;"><tspan dy="-4.0859375">DispSync</tspan><tspan dy="19.2" x="693.75">(native)</tspan></text><rect x="645.34375" y="315.21875" width="96.8125" height="57.21875" rx="0" ry="0" fill="none" stroke="#000000" stroke-width="2" style=""></rect><rect x="655.34375" y="325.21875" width="76.8125" height="37.21875" rx="0" ry="0" fill="#ffffff" stroke="none" style=""></rect><text x="693.75" y="343.828125" text-anchor="middle" font-family="Andale Mono, monospace" font-size="16px" stroke="none" fill="#000000" style="text-anchor: middle; font-family: &quot;Andale Mono&quot;, monospace; font-size: 16px;"><tspan dy="-4.0859375">DispSync</tspan><tspan dy="19.2" x="693.75">(native)</tspan></text><path fill="none" stroke="#000000" d="M693.75,105.21875L693.75,315.21875" stroke-width="2" style=""></path><rect x="112.21875" y="125.21875" width="163.25" height="18" rx="0" ry="0" fill="#ffffff" stroke="none" style=""></rect><text x="193.84375" y="134.21875" text-anchor="middle" font-family="Andale Mono, monospace" font-size="16px" stroke="none" fill="#000000" style="text-anchor: middle; font-family: &quot;Andale Mono&quot;, monospace; font-size: 16px;"><tspan dy="5.515625">postComposition()</tspan></text><path fill="none" stroke="#000000" d="M87.21875,120.21875L107.21875,120.21875" stroke-width="2" stroke-dasharray="none" style=""></path><path fill="none" stroke="#000000" d="M107.21875,120.21875L107.21875,153.21875" stroke-width="2" stroke-dasharray="none" style=""></path><path fill="none" stroke="#000000" d="M107.21875,153.21875C107.21875,153.21875,98.13786315917969,153.21875,92.21400338411331,153.21875" stroke-width="2" stroke-dasharray="none" marker-end="url(#raphael-marker-endblock55-objfybgh)" style=""></path><rect x="97.21875" y="159.21875" width="316.875" height="18" rx="0" ry="0" fill="#ffffff" stroke="none" style=""></rect><text x="255.65625" y="168.21875" text-anchor="middle" font-family="Andale Mono, monospace" font-size="16px" stroke="none" fill="#000000" style="text-anchor: middle; font-family: &quot;Andale Mono&quot;, monospace; font-size: 16px;"><tspan dy="5.515625">getHwComposer().getPresentFence()</tspan></text><path fill="none" stroke="#000000" d="M87.21875,181.21875C87.21875,181.21875,377.3166772648692,181.21875,419.10324393632254,181.21875" stroke-width="2" marker-end="url(#raphael-marker-endblock55-obj5cjyz)" stroke-dasharray="none" style=""></path><rect x="434.09375" y="197.21875" width="249.65625" height="18" rx="0" ry="0" fill="#ffffff" stroke="none" style=""></rect><text x="558.921875" y="206.21875" text-anchor="middle" font-family="Andale Mono, monospace" font-size="16px" stroke="none" fill="#000000" style="text-anchor: middle; font-family: &quot;Andale Mono&quot;, monospace; font-size: 16px;"><tspan dy="5.515625">addPresentFence(fenceTime)</tspan></text><path fill="none" stroke="#000000" d="M424.09375,219.21875C424.09375,219.21875,651.9288101438433,219.21875,688.7517617588883,219.21875" stroke-width="2" marker-end="url(#raphael-marker-endblock55-obj5yq0v)" stroke-dasharray="none" style=""></path><rect x="718.75" y="239.21875" width="249.65625" height="18" rx="0" ry="0" fill="#ffffff" stroke="none" style=""></rect><text x="843.578125" y="248.21875" text-anchor="middle" font-family="Andale Mono, monospace" font-size="16px" stroke="none" fill="#000000" style="text-anchor: middle; font-family: &quot;Andale Mono&quot;, monospace; font-size: 16px;"><tspan dy="5.515625">addPresentFence(fenceTime)</tspan></text><path fill="none" stroke="#000000" d="M693.75,234.21875L713.75,234.21875" stroke-width="2" stroke-dasharray="none" style=""></path><path fill="none" stroke="#000000" d="M713.75,234.21875L713.75,267.21875" stroke-width="2" stroke-dasharray="none" style=""></path><path fill="none" stroke="#000000" d="M713.75,267.21875C713.75,267.21875,704.6691131591797,267.21875,698.7452533841133,267.21875" stroke-width="2" stroke-dasharray="none" marker-end="url(#raphael-marker-endblock55-obj5nxno)" style=""></path><rect x="718.75" y="277.21875" width="182.4375" height="18" rx="0" ry="0" fill="#ffffff" stroke="none" style=""></rect><text x="809.96875" y="286.21875" text-anchor="middle" font-family="Andale Mono, monospace" font-size="16px" stroke="none" fill="#000000" style="text-anchor: middle; font-family: &quot;Andale Mono&quot;, monospace; font-size: 16px;"><tspan dy="5.515625">updateErrorLocked()</tspan></text><path fill="none" stroke="#000000" d="M693.75,272.21875L713.75,272.21875" stroke-width="2" stroke-dasharray="none" style=""></path><path fill="none" stroke="#000000" d="M713.75,272.21875L713.75,305.21875" stroke-width="2" stroke-dasharray="none" style=""></path><path fill="none" stroke="#000000" d="M713.75,305.21875C713.75,305.21875,704.6691131591797,305.21875,698.7452533841133,305.21875" stroke-width="2" stroke-dasharray="none" marker-end="url(#raphael-marker-endblock55-obj4a5q5)" style=""></path></svg>