<svg height="392.4375" version="1.1" width="890" xmlns="http://www.w3.org/2000/svg" xmlns:xlink="http://www.w3.org/1999/xlink" style="overflow: hidden; position: relative;"><desc>Created with Raphaël 2.2.0</desc><defs><path stroke-linecap="round" d="M5,0 0,2.5 5,5z" id="raphael-marker-block"></path><marker id="raphael-marker-endblock55-obj8rwje" markerHeight="5" markerWidth="5" orient="auto" refX="2.5" refY="2.5"><use xlink:href="#raphael-marker-block" transform="rotate(180 2.5 2.5) scale(1,1)" stroke-width="1.0000" fill="#000" stroke="none"></use></marker><marker id="raphael-marker-endblock55-obj2kw2z" markerHeight="5" markerWidth="5" orient="auto" refX="2.5" refY="2.5"><use xlink:href="#raphael-marker-block" transform="rotate(180 2.5 2.5) scale(1,1)" stroke-width="1.0000" fill="#000" stroke="none"></use></marker><marker id="raphael-marker-endblock55-objkcgto" markerHeight="5" markerWidth="5" orient="auto" refX="2.5" refY="2.5"><use xlink:href="#raphael-marker-block" transform="rotate(180 2.5 2.5) scale(1,1)" stroke-width="1.0000" fill="#000" stroke="none"></use></marker><marker id="raphael-marker-endblock55-objdutkl" markerHeight="5" markerWidth="5" orient="auto" refX="2.5" refY="2.5"><use xlink:href="#raphael-marker-block" transform="rotate(180 2.5 2.5) scale(1,1)" stroke-width="1.0000" fill="#000" stroke="none"></use></marker><marker id="raphael-marker-endblock55-objk05ty" markerHeight="5" markerWidth="5" orient="auto" refX="2.5" refY="2.5"><use xlink:href="#raphael-marker-block" transform="rotate(180 2.5 2.5) scale(1,1)" stroke-width="1.0000" fill="#000" stroke="none"></use></marker></defs><rect x="10" y="10" width="326.875" height="28" rx="0" ry="0" fill="none" stroke="#000000" stroke-width="2" style=""></rect><rect x="15" y="15" width="316.875" height="18" rx="0" ry="0" fill="#ffffff" stroke="none" style=""></rect><text x="173.4375" y="24" text-anchor="middle" font-family="Andale Mono, monospace" font-size="16px" stroke="none" fill="#000000" style="text-anchor: middle; font-family: &quot;Andale Mono&quot;, monospace; font-size: 16px;"><tspan dy="5.515625">SurfaceFlinger::onVsyncReceived()</tspan></text><rect x="10" y="48" width="154.4375" height="57.21875" rx="0" ry="0" fill="none" stroke="#000000" stroke-width="2" style=""></rect><rect x="20" y="58" width="134.4375" height="37.21875" rx="0" ry="0" fill="#ffffff" stroke="none" style=""></rect><text x="87.21875" y="76.609375" text-anchor="middle" font-family="Andale Mono, monospace" font-size="16px" stroke="none" fill="#000000" style="text-anchor: middle; font-family: &quot;Andale Mono&quot;, monospace; font-size: 16px;"><tspan dy="-4.0859375">SurfaceFlinger</tspan><tspan dy="19.2" x="87.21875">(native)</tspan></text><rect x="10" y="315.21875" width="154.4375" height="57.21875" rx="0" ry="0" fill="none" stroke="#000000" stroke-width="2" style=""></rect><rect x="20" y="325.21875" width="134.4375" height="37.21875" rx="0" ry="0" fill="#ffffff" stroke="none" style=""></rect><text x="87.21875" y="343.828125" text-anchor="middle" font-family="Andale Mono, monospace" font-size="16px" stroke="none" fill="#000000" style="text-anchor: middle; font-family: &quot;Andale Mono&quot;, monospace; font-size: 16px;"><tspan dy="-4.0859375">SurfaceFlinger</tspan><tspan dy="19.2" x="87.21875">(native)</tspan></text><path fill="none" stroke="#000000" d="M87.21875,105.21875L87.21875,315.21875" stroke-width="2" style=""></path><rect x="217.25" y="48" width="106.4375" height="57.21875" rx="0" ry="0" fill="none" stroke="#000000" stroke-width="2" style=""></rect><rect x="227.25" y="58" width="86.4375" height="37.21875" rx="0" ry="0" fill="#ffffff" stroke="none" style=""></rect><text x="270.46875" y="76.609375" text-anchor="middle" font-family="Andale Mono, monospace" font-size="16px" stroke="none" fill="#000000" style="text-anchor: middle; font-family: &quot;Andale Mono&quot;, monospace; font-size: 16px;"><tspan dy="-4.0859375">Scheduler</tspan><tspan dy="19.2" x="270.46875">(native)</tspan></text><rect x="217.25" y="315.21875" width="106.4375" height="57.21875" rx="0" ry="0" fill="none" stroke="#000000" stroke-width="2" style=""></rect><rect x="227.25" y="325.21875" width="86.4375" height="37.21875" rx="0" ry="0" fill="#ffffff" stroke="none" style=""></rect><text x="270.46875" y="343.828125" text-anchor="middle" font-family="Andale Mono, monospace" font-size="16px" stroke="none" fill="#000000" style="text-anchor: middle; font-family: &quot;Andale Mono&quot;, monospace; font-size: 16px;"><tspan dy="-4.0859375">Scheduler</tspan><tspan dy="19.2" x="270.46875">(native)</tspan></text><path fill="none" stroke="#000000" d="M270.46875,105.21875L270.46875,315.21875" stroke-width="2" style=""></path><rect x="405.3125" y="48" width="96.8125" height="57.21875" rx="0" ry="0" fill="none" stroke="#000000" stroke-width="2" style=""></rect><rect x="415.3125" y="58" width="76.8125" height="37.21875" rx="0" ry="0" fill="#ffffff" stroke="none" style=""></rect><text x="453.71875" y="76.609375" text-anchor="middle" font-family="Andale Mono, monospace" font-size="16px" stroke="none" fill="#000000" style="text-anchor: middle; font-family: &quot;Andale Mono&quot;, monospace; font-size: 16px;"><tspan dy="-4.0859375">DispSync</tspan><tspan dy="19.2" x="453.71875">(native)</tspan></text><rect x="405.3125" y="315.21875" width="96.8125" height="57.21875" rx="0" ry="0" fill="none" stroke="#000000" stroke-width="2" style=""></rect><rect x="415.3125" y="325.21875" width="76.8125" height="37.21875" rx="0" ry="0" fill="#ffffff" stroke="none" style=""></rect><text x="453.71875" y="343.828125" text-anchor="middle" font-family="Andale Mono, monospace" font-size="16px" stroke="none" fill="#000000" style="text-anchor: middle; font-family: &quot;Andale Mono&quot;, monospace; font-size: 16px;"><tspan dy="-4.0859375">DispSync</tspan><tspan dy="19.2" x="453.71875">(native)</tspan></text><path fill="none" stroke="#000000" d="M453.71875,105.21875L453.71875,315.21875" stroke-width="2" style=""></path><rect x="579.75" y="48" width="154.4375" height="57.21875" rx="0" ry="0" fill="none" stroke="#000000" stroke-width="2" style=""></rect><rect x="589.75" y="58" width="134.4375" height="37.21875" rx="0" ry="0" fill="#ffffff" stroke="none" style=""></rect><text x="656.96875" y="76.609375" text-anchor="middle" font-family="Andale Mono, monospace" font-size="16px" stroke="none" fill="#000000" style="text-anchor: middle; font-family: &quot;Andale Mono&quot;, monospace; font-size: 16px;"><tspan dy="-4.0859375">DispSyncThread</tspan><tspan dy="19.2" x="656.96875">(native)</tspan></text><rect x="579.75" y="315.21875" width="154.4375" height="57.21875" rx="0" ry="0" fill="none" stroke="#000000" stroke-width="2" style=""></rect><rect x="589.75" y="325.21875" width="134.4375" height="37.21875" rx="0" ry="0" fill="#ffffff" stroke="none" style=""></rect><text x="656.96875" y="343.828125" text-anchor="middle" font-family="Andale Mono, monospace" font-size="16px" stroke="none" fill="#000000" style="text-anchor: middle; font-family: &quot;Andale Mono&quot;, monospace; font-size: 16px;"><tspan dy="-4.0859375">DispSyncThread</tspan><tspan dy="19.2" x="656.96875">(native)</tspan></text><path fill="none" stroke="#000000" d="M656.96875,105.21875L656.96875,315.21875" stroke-width="2" style=""></path><rect x="97.21875" y="121.21875" width="163.25" height="18" rx="0" ry="0" fill="#ffffff" stroke="none" style=""></rect><text x="178.84375" y="130.21875" text-anchor="middle" font-family="Andale Mono, monospace" font-size="16px" stroke="none" fill="#000000" style="text-anchor: middle; font-family: &quot;Andale Mono&quot;, monospace; font-size: 16px;"><tspan dy="5.515625">onVsyncReceived()</tspan></text><path fill="none" stroke="#000000" d="M87.21875,143.21875C87.21875,143.21875,236.10255932807922,143.21875,265.4722170275636,143.21875" stroke-width="2" marker-end="url(#raphael-marker-endblock55-obj8rwje)" stroke-dasharray="none" style=""></path><rect x="280.46875" y="159.21875" width="163.25" height="18" rx="0" ry="0" fill="#ffffff" stroke="none" style=""></rect><text x="362.09375" y="168.21875" text-anchor="middle" font-family="Andale Mono, monospace" font-size="16px" stroke="none" fill="#000000" style="text-anchor: middle; font-family: &quot;Andale Mono&quot;, monospace; font-size: 16px;"><tspan dy="5.515625">addResyncSample()</tspan></text><path fill="none" stroke="#000000" d="M270.46875,181.21875C270.46875,181.21875,419.3525593280792,181.21875,448.7222170275636,181.21875" stroke-width="2" marker-end="url(#raphael-marker-endblock55-obj2kw2z)" stroke-dasharray="none" style=""></path><rect x="478.71875" y="201.21875" width="163.25" height="18" rx="0" ry="0" fill="#ffffff" stroke="none" style=""></rect><text x="560.34375" y="210.21875" text-anchor="middle" font-family="Andale Mono, monospace" font-size="16px" stroke="none" fill="#000000" style="text-anchor: middle; font-family: &quot;Andale Mono&quot;, monospace; font-size: 16px;"><tspan dy="5.515625">addResyncSample()</tspan></text><path fill="none" stroke="#000000" d="M453.71875,196.21875L473.71875,196.21875" stroke-width="2" stroke-dasharray="none" style=""></path><path fill="none" stroke="#000000" d="M473.71875,196.21875L473.71875,229.21875" stroke-width="2" stroke-dasharray="none" style=""></path><path fill="none" stroke="#000000" d="M473.71875,229.21875C473.71875,229.21875,464.6378631591797,229.21875,458.7140033841133,229.21875" stroke-width="2" stroke-dasharray="none" marker-end="url(#raphael-marker-endblock55-objkcgto)" style=""></path><rect x="464.125" y="235.21875" width="182.4375" height="18" rx="0" ry="0" fill="#ffffff" stroke="none" style=""></rect><text x="555.34375" y="244.21875" text-anchor="middle" font-family="Andale Mono, monospace" font-size="16px" stroke="none" fill="#000000" style="text-anchor: middle; font-family: &quot;Andale Mono&quot;, monospace; font-size: 16px;"><tspan dy="5.515625">updateModelLocked()</tspan></text><path fill="none" stroke="#000000" d="M453.71875,257.21875C453.71875,257.21875,620.7357031852007,257.21875,651.9698306607534,257.21875" stroke-width="2" marker-end="url(#raphael-marker-endblock55-objdutkl)" stroke-dasharray="none" style=""></path><rect x="681.96875" y="277.21875" width="124.84375" height="18" rx="0" ry="0" fill="#ffffff" stroke="none" style=""></rect><text x="744.390625" y="286.21875" text-anchor="middle" font-family="Andale Mono, monospace" font-size="16px" stroke="none" fill="#000000" style="text-anchor: middle; font-family: &quot;Andale Mono&quot;, monospace; font-size: 16px;"><tspan dy="5.515625">updateModel()</tspan></text><path fill="none" stroke="#000000" d="M656.96875,272.21875L676.96875,272.21875" stroke-width="2" stroke-dasharray="none" style=""></path><path fill="none" stroke="#000000" d="M676.96875,272.21875L676.96875,305.21875" stroke-width="2" stroke-dasharray="none" style=""></path><path fill="none" stroke="#000000" d="M676.96875,305.21875C676.96875,305.21875,667.8878631591797,305.21875,661.9640033841133,305.21875" stroke-width="2" stroke-dasharray="none" marker-end="url(#raphael-marker-endblock55-objk05ty)" style=""></path></svg>